<?xml version="1.0" standalone="no"?>
<!DOCTYPE svg PUBLIC "-//W3C//DTD SVG 20010904//EN"
 "http://www.w3.org/TR/2001/REC-SVG-20010904/DTD/svg10.dtd">
<svg version="1.0" xmlns="http://www.w3.org/2000/svg"
 width="2718.000000pt" height="2822.000000pt" viewBox="0 0 2718.000000 2822.000000"
 preserveAspectRatio="xMidYMid meet">

<g transform="translate(0.000000,2822.000000) scale(0.100000,-0.100000)"
fill="#000000" stroke="none">
<path d="M15021 23241 c-73 -19 -87 -48 -326 -686 -87 -231 -178 -466 -202
-522 -39 -88 -48 -103 -68 -103 -40 0 -575 -40 -680 -50 -196 -20 -373 -42
-570 -71 -119 -17 -242 -29 -303 -29 -99 0 -104 1 -129 28 -24 26 -176 252
-428 637 -128 196 -234 343 -297 411 -35 38 -46 44 -82 44 -219 -1 -1373 -448
-1525 -591 -23 -21 -24 -27 -18 -113 7 -106 41 -350 98 -701 22 -137 49 -311
59 -385 18 -135 18 -135 -2 -178 -24 -50 -110 -123 -278 -235 -280 -187 -520
-364 -833 -615 l-218 -175 -447 221 c-454 224 -714 345 -788 364 -57 16 -79 0
-250 -174 -284 -289 -650 -744 -791 -982 -67 -114 -69 -146 -15 -234 50 -84
139 -196 498 -633 168 -204 308 -377 310 -383 2 -6 -61 -147 -142 -311 -168
-343 -285 -604 -386 -855 -82 -206 -152 -346 -183 -366 -45 -30 -160 -44 -425
-54 -480 -18 -860 -48 -953 -76 -9 -3 -24 -19 -33 -36 -68 -131 -224 -1197
-224 -1529 0 -82 3 -100 21 -123 38 -48 211 -121 774 -326 332 -121 395 -150
455 -210 71 -70 80 -111 91 -395 10 -287 26 -457 78 -842 21 -158 42 -312 45
-341 l7 -53 -50 -48 c-78 -76 -207 -169 -586 -422 -335 -224 -495 -338 -524
-372 -11 -14 -8 -31 14 -106 85 -288 368 -1035 422 -1114 27 -39 97 -87 126
-87 67 0 235 118 893 625 1385 1068 1860 1443 1874 1479 12 32 -4 161 -50 386
-97 483 -127 735 -137 1160 -28 1210 319 2354 1010 3330 569 803 1390 1487
2257 1881 1312 596 2740 668 4110 209 314 -105 718 -281 949 -414 93 -53 200
-96 238 -96 22 0 122 70 439 308 225 169 537 407 694 528 297 229 962 743
1255 969 205 159 279 226 317 284 72 115 13 206 -278 427 -146 112 -341 243
-371 250 -14 4 -39 -3 -67 -20 -62 -36 -260 -187 -476 -362 -293 -239 -543
-421 -601 -439 -36 -12 -233 67 -489 195 -177 88 -444 207 -649 287 -264 103
-358 157 -392 226 -30 57 -48 207 -59 477 -18 455 -38 716 -61 804 -15 56 -50
82 -153 115 -304 98 -1357 247 -1495 212z"/>
<path d="M20175 20021 c-57 -26 -168 -117 -335 -276 -452 -430 -1300 -1299
-1416 -1450 -22 -29 -25 -40 -17 -58 19 -40 118 -166 234 -295 159 -177 202
-228 314 -377 554 -731 913 -1622 1034 -2565 36 -281 45 -421 45 -740 0 -173
-6 -376 -13 -450 -62 -681 -215 -1305 -448 -1825 -627 -1397 -1642 -2395
-3023 -2972 -298 -125 -766 -268 -1085 -332 -384 -77 -1373 -96 -1849 -36
-373 48 -910 203 -1342 388 -626 269 -1155 614 -1679 1096 -242 223 -406 353
-462 367 -68 17 -223 -131 -683 -651 -146 -165 -413 -466 -595 -670 -658 -736
-955 -1089 -955 -1135 0 -68 525 -598 1040 -1050 224 -197 441 -360 480 -360
35 0 202 124 560 415 236 192 336 269 457 351 85 57 102 65 130 59 47 -9 241
-90 453 -190 327 -154 577 -261 795 -340 187 -68 241 -97 254 -137 28 -87 46
-289 66 -738 25 -564 42 -636 155 -684 79 -33 547 -121 930 -175 352 -50 578
-64 630 -38 46 23 129 199 311 665 181 461 229 572 256 589 34 23 210 49 483
73 298 25 505 49 818 95 130 19 270 35 309 35 l73 0 37 -48 c21 -26 94 -134
163 -240 257 -397 440 -670 507 -757 83 -108 90 -110 249 -70 384 96 1229 448
1374 572 l42 36 -7 86 c-10 127 -50 432 -95 721 -59 378 -76 545 -59 566 20
24 126 101 364 264 396 272 629 446 819 613 117 103 142 115 198 96 24 -7 259
-122 523 -254 523 -262 658 -322 698 -311 101 25 575 552 879 976 139 194 195
299 184 344 -9 35 -124 190 -381 511 -235 294 -342 434 -410 537 -32 49 -36
63 -31 93 4 19 53 126 109 238 121 238 185 379 314 687 112 264 213 480 248
526 20 27 34 34 87 43 108 18 352 40 633 56 381 22 624 49 661 73 75 48 254
992 271 1428 7 189 3 215 -48 264 -53 52 -155 95 -606 255 -208 75 -414 153
-459 174 -179 85 -202 137 -224 501 -6 102 -20 273 -31 380 -18 183 -27 246
-80 598 -12 79 -19 168 -17 211 3 67 6 75 33 97 45 36 330 229 592 401 128 83
272 181 320 217 108 79 193 166 193 198 0 66 -90 356 -211 680 -164 440 -281
704 -357 803 l-38 50 -69 3 c-81 4 -315 -25 -600 -74 -313 -54 -595 -94 -657
-94 l-57 0 -76 98 c-41 53 -135 185 -208 292 -178 262 -369 515 -565 749 -89
106 -162 198 -162 203 0 5 38 89 85 186 131 276 145 366 65 423 -39 28 -80 31
-125 10z"/>
<path d="M14398 15561 c-23 -27 -30 -46 -58 -158 -11 -44 -46 -80 -109 -113
-58 -29 -149 -52 -180 -45 -15 3 -57 31 -92 61 -118 102 -199 125 -245 71 -34
-39 -32 -82 6 -117 25 -23 30 -36 30 -72 -1 -56 -36 -141 -92 -220 -82 -114
-99 -119 -208 -69 -112 51 -182 53 -200 7 -12 -33 3 -85 40 -132 87 -112 92
-124 87 -194 -12 -154 -54 -217 -170 -251 -170 -51 -225 -110 -159 -171 25
-24 57 -37 171 -68 49 -13 101 -58 101 -87 0 -11 11 -29 24 -40 29 -26 43
-112 30 -181 -7 -36 -16 -49 -39 -62 -43 -24 -91 -91 -112 -156 -17 -55 -17
-56 2 -71 17 -12 40 -14 140 -7 222 14 211 15 260 -39 48 -52 95 -139 95 -174
0 -13 -16 -64 -35 -113 -19 -49 -35 -98 -35 -109 0 -23 24 -49 58 -62 33 -13
107 22 190 89 87 72 121 80 224 57 107 -25 140 -48 150 -103 9 -53 15 -63 36
-60 15 3 17 -6 14 -73 -3 -80 2 -91 47 -102 81 -20 214 143 183 225 -10 28 -9
30 36 59 26 16 77 39 114 50 58 18 73 19 105 8 87 -28 233 -144 233 -184 0
-21 33 -19 63 5 26 20 47 73 47 117 0 12 -14 36 -30 53 -30 31 -31 32 -28 127
3 89 4 96 24 98 11 1 36 13 55 27 52 39 112 67 181 83 99 23 102 23 146 -30 7
-8 28 -15 47 -15 46 0 70 35 62 87 -7 41 -20 53 -49 45 -18 -4 -19 -1 -13 40
6 37 2 53 -20 97 -25 48 -27 58 -23 139 6 103 24 158 58 183 14 11 68 29 120
42 52 13 110 31 127 41 41 20 51 57 28 92 -15 24 -42 38 -197 106 -26 12 -56
31 -67 42 -48 51 -76 212 -48 276 8 19 38 62 66 94 63 74 79 117 57 151 -21
32 -73 41 -151 26 -133 -24 -175 -13 -269 70 -89 80 -102 124 -71 239 21 79
20 163 -3 183 -39 36 -92 14 -195 -79 -27 -24 -67 -49 -89 -54 -76 -21 -201
24 -237 85 -10 16 -28 64 -41 105 -17 59 -31 84 -65 117 -53 53 -91 58 -127
14z m165 -575 c42 -8 129 -36 194 -62 86 -35 132 -48 170 -48 51 -1 53 -2 53
-29 0 -64 143 -299 171 -281 25 15 45 -108 55 -336 7 -173 -5 -321 -32 -372
-9 -18 -41 -57 -70 -88 -59 -62 -74 -93 -74 -151 0 -37 -3 -41 -37 -55 -21 -9
-85 -37 -143 -64 -157 -74 -263 -102 -397 -108 -83 -3 -132 0 -188 13 -96 21
-231 89 -313 156 -136 112 -247 297 -282 471 -35 165 -24 274 46 475 28 83 33
107 23 119 -9 12 -2 23 41 62 86 78 219 169 325 222 169 83 302 105 458 76z"/>
</g>
</svg>
