<?xml version="1.0" standalone="no"?>
<!DOCTYPE svg PUBLIC "-//W3C//DTD SVG 20010904//EN"
 "http://www.w3.org/TR/2001/REC-SVG-20010904/DTD/svg10.dtd">
<svg version="1.0" xmlns="http://www.w3.org/2000/svg"
 width="1600.000000pt" height="681.000000pt" viewBox="0 0 1600.000000 681.000000"
 preserveAspectRatio="xMidYMid meet">

<g transform="translate(0.000000,681.000000) scale(0.100000,-0.100000)"
fill="#000000" stroke="none">
<path d="M3604 5569 c-6 -8 -28 -61 -49 -119 -21 -58 -46 -123 -55 -146 l-18
-41 -104 -7 c-56 -4 -145 -13 -197 -22 -64 -10 -97 -11 -106 -4 -6 5 -47 66
-91 135 -43 68 -87 127 -96 130 -35 12 -369 -117 -380 -147 -3 -7 6 -76 18
-153 13 -77 24 -150 24 -161 0 -16 -21 -35 -82 -75 -46 -30 -118 -83 -162
-118 l-79 -64 -144 71 c-79 40 -151 72 -161 72 -25 -1 -208 -215 -248 -291
-15 -31 -17 -28 120 -194 l79 -96 -50 -102 c-28 -56 -63 -136 -79 -177 -15
-41 -34 -81 -43 -87 -9 -8 -47 -13 -95 -14 -97 -1 -232 -12 -241 -20 -20 -21
-69 -373 -55 -399 8 -15 43 -30 213 -91 102 -36 107 -43 107 -147 0 -37 7
-112 15 -166 8 -55 15 -107 15 -117 0 -11 -49 -49 -140 -108 -77 -50 -140 -95
-140 -100 0 -19 90 -264 105 -287 8 -13 24 -24 34 -24 10 0 56 29 102 65 46
36 190 146 319 246 129 100 238 186 242 193 3 6 -2 49 -13 96 -98 452 22 897
333 1225 384 406 958 532 1477 326 53 -21 120 -53 150 -70 29 -18 60 -30 67
-27 7 3 122 89 256 192 134 104 278 215 321 248 101 77 101 89 -3 168 -41 31
-81 57 -88 58 -8 0 -69 -45 -135 -100 -67 -55 -130 -100 -140 -100 -9 0 -59
21 -110 46 -50 26 -126 59 -167 74 -52 19 -79 35 -87 51 -7 13 -13 65 -14 114
-1 50 -4 117 -8 150 -6 58 -7 60 -41 71 -44 15 -202 41 -295 50 -54 5 -73 3
-81 -7z"/>
<path d="M6857 5097 c-94 -22 -146 -74 -167 -170 -17 -76 -24 -470 -11 -612
19 -205 65 -263 227 -286 43 -6 117 -9 164 -5 221 15 281 77 288 299 l4 117
-126 0 -126 0 0 -47 c0 -111 -22 -138 -106 -131 -63 5 -65 14 -62 325 3 311 2
307 83 305 67 -1 75 -11 75 -104 l0 -79 128 3 127 3 3 65 c4 86 -15 192 -41
232 -13 20 -46 45 -80 62 -53 26 -67 29 -190 32 -85 2 -152 -1 -190 -9z"/>
<path d="M10713 5100 c-87 -18 -142 -64 -168 -140 -37 -103 -39 -673 -3 -785
18 -56 83 -120 138 -136 62 -18 312 -18 365 0 63 22 96 50 121 106 38 81 47
187 42 483 -5 290 -12 331 -64 399 -45 60 -98 76 -254 79 -74 2 -154 -1 -177
-6z m212 -221 c22 -21 33 -365 16 -527 -8 -84 -15 -92 -83 -92 -73 0 -73 1
-73 315 0 287 3 310 47 318 29 5 80 -3 93 -14z"/>
<path d="M7480 4565 l0 -525 285 0 285 0 0 115 0 114 -152 3 -151 3 -1 97 -1
97 150 3 150 3 0 105 0 105 -150 3 -150 2 2 88 1 87 151 3 151 3 0 109 0 110
-285 0 -285 0 0 -525z"/>
<path d="M8180 4565 l0 -525 120 0 120 0 0 287 c0 166 4 283 9 277 8 -8 181
-326 271 -496 l35 -68 73 0 72 0 0 525 0 525 -125 0 -125 0 0 -180 c0 -99 -3
-180 -7 -180 -5 0 -47 81 -95 180 l-87 180 -130 0 -131 0 0 -525z"/>
<path d="M8970 4980 l0 -110 100 0 100 0 0 -415 0 -415 135 0 135 0 0 415 0
415 100 0 100 0 0 110 0 110 -335 0 -335 0 0 -110z"/>
<path d="M9740 4590 c0 -275 2 -511 6 -525 l6 -25 129 0 129 0 0 205 0 205 34
0 c18 0 39 -6 45 -13 6 -8 23 -89 37 -182 14 -92 30 -178 35 -191 8 -24 10
-24 149 -24 130 0 141 1 136 18 -3 9 -10 51 -16 92 -35 237 -59 327 -99 374
-12 15 -13 20 -3 23 7 3 26 16 42 29 40 34 53 101 48 249 -4 139 -20 183 -77
220 -57 38 -111 44 -363 45 l-237 0 -1 -500z m374 280 c32 -12 49 -71 40 -139
-8 -64 -30 -84 -92 -85 l-47 -1 -3 118 -3 117 40 0 c22 0 51 -4 65 -10z"/>
<path d="M11680 4565 l0 -527 258 4 c289 5 327 12 381 74 59 66 66 115 66 449
0 258 -2 308 -18 357 -21 71 -58 115 -117 142 -41 19 -67 21 -307 24 l-263 4
0 -527z m409 296 c24 -15 30 -91 28 -324 -2 -227 -2 -229 -26 -248 -17 -14
-39 -19 -82 -19 l-59 0 0 300 0 300 63 0 c34 0 68 -4 76 -9z"/>
<path d="M12500 4565 l0 -525 285 0 285 0 0 115 0 114 -147 3 -148 3 -3 97 -3
97 148 3 148 3 0 105 0 105 -147 3 -148 3 0 89 0 90 150 0 150 0 0 110 0 110
-285 0 -285 0 0 -525z"/>
<path d="M4638 4602 c-115 -114 -208 -214 -208 -221 0 -7 25 -40 56 -73 286
-309 400 -757 304 -1189 -29 -127 -54 -198 -112 -314 -189 -376 -525 -632
-950 -722 -102 -21 -368 -24 -473 -5 -265 49 -511 174 -704 358 -50 47 -97 84
-108 84 -13 0 -55 -39 -116 -107 -52 -60 -167 -189 -256 -288 -88 -99 -161
-187 -161 -195 0 -31 333 -340 366 -340 7 0 67 45 133 100 66 55 128 100 137
100 9 0 67 -24 128 -54 61 -29 136 -61 166 -71 30 -10 60 -22 67 -29 8 -7 14
-61 18 -146 9 -210 4 -196 83 -214 37 -9 124 -23 194 -33 100 -13 130 -14 141
-4 8 6 38 73 67 149 29 75 56 142 61 148 5 6 55 14 112 18 56 4 144 14 194 22
51 9 97 13 101 10 5 -3 47 -64 92 -137 46 -72 90 -133 97 -136 33 -13 367 120
379 151 3 8 -6 83 -19 168 -14 84 -23 156 -20 161 2 4 46 35 96 69 81 54 163
116 205 156 7 6 18 12 24 12 6 0 72 -31 146 -70 74 -38 142 -70 152 -70 33 0
260 275 260 316 0 7 -45 67 -100 134 -55 67 -100 128 -100 136 0 8 13 38 29
67 16 28 51 104 76 167 26 63 53 120 61 126 8 6 81 14 167 18 95 5 156 12 163
19 19 21 63 268 64 358 0 53 4 51 -175 114 -148 53 -141 44 -148 172 -4 59
-13 146 -22 192 -10 60 -12 88 -4 97 6 7 69 50 140 96 101 65 129 88 129 105
0 25 -49 166 -99 285 -20 47 -40 79 -51 83 -10 3 -85 -6 -165 -20 -81 -15
-153 -24 -159 -22 -7 3 -42 49 -78 104 -36 54 -89 124 -117 156 -28 32 -51 60
-51 63 0 3 12 27 26 55 31 62 29 93 -6 97 -21 2 -60 -33 -232 -206z"/>
<path d="M8728 3869 c-70 -10 -107 -28 -142 -69 -51 -61 -59 -111 -64 -409 -8
-514 22 -576 288 -597 112 -8 229 9 291 43 69 37 97 96 106 225 3 52 3 107 -1
122 l-6 26 -118 0 -118 0 -11 -81 c-6 -44 -16 -86 -22 -92 -13 -13 -109 -13
-123 1 -5 5 -14 43 -20 83 -13 95 -6 486 10 515 13 24 58 36 101 28 37 -8 51
-43 51 -125 l0 -59 124 0 125 0 6 53 c8 69 -8 188 -32 235 -30 57 -93 91 -194
102 -97 11 -170 11 -251 -1z"/>
<path d="M13910 3869 c-30 -5 -71 -18 -90 -28 -44 -23 -87 -91 -100 -160 -17
-89 -23 -414 -11 -571 9 -127 14 -152 39 -200 38 -75 81 -98 212 -112 115 -13
256 0 316 28 20 9 47 34 61 54 44 68 54 128 60 375 10 436 -21 558 -157 604
-47 16 -261 23 -330 10z m201 -229 c32 -38 34 -569 3 -600 -6 -6 -31 -11 -57
-12 -82 -4 -82 -6 -85 291 -2 142 1 274 6 292 15 59 94 76 133 29z"/>
<path d="M6690 3335 l0 -525 120 0 120 0 0 317 c0 196 4 313 9 307 5 -5 26
-63 46 -129 20 -66 59 -192 87 -280 27 -88 53 -171 57 -185 7 -23 13 -25 69
-28 l61 -3 21 73 c12 40 39 127 60 193 21 66 55 176 76 245 l39 125 5 -315 5
-315 123 -3 122 -3 0 526 0 525 -190 0 -189 0 -9 -32 c-55 -198 -127 -427
-133 -421 -6 7 -98 346 -114 421 l-7 32 -189 0 -189 0 0 -525z"/>
<path d="M7842 3338 l3 -523 283 -3 282 -2 0 115 0 115 -150 0 -150 0 0 100 0
99 148 3 147 3 3 103 3 102 -151 0 -150 0 0 95 0 95 150 0 150 0 0 110 0 110
-285 0 -285 0 2 -522z"/>
<path d="M9407 3838 c-3 -13 -20 -133 -37 -268 -17 -135 -47 -359 -66 -498
-19 -140 -34 -255 -34 -258 0 -2 60 -4 134 -4 l134 0 6 93 c12 155 7 147 81
147 l63 0 6 -52 c3 -29 8 -83 12 -120 l6 -68 136 0 135 0 -7 78 c-4 42 -32
273 -62 512 -29 239 -54 441 -54 448 0 9 -51 12 -224 12 l-224 0 -5 -22z m228
-210 c7 -21 42 -352 38 -360 -2 -5 -27 -8 -55 -8 l-51 0 6 38 c3 20 14 106 23
190 16 138 26 175 39 140z"/>
<path d="M10090 3335 l0 -525 120 0 120 0 2 283 3 282 26 -45 c14 -25 83 -152
154 -282 l128 -238 69 0 68 0 0 525 0 525 -120 0 -120 0 0 -180 c0 -99 -3
-180 -8 -180 -4 0 -48 81 -97 180 l-90 180 -127 0 -128 0 0 -525z"/>
<path d="M10920 3335 l0 -525 135 0 135 0 0 525 0 525 -135 0 -135 0 0 -525z"/>
<path d="M11330 3750 l0 -110 160 0 c111 0 160 -3 160 -11 0 -6 -76 -138 -170
-293 l-170 -282 0 -122 0 -122 345 0 345 0 0 115 0 115 -189 0 c-105 0 -192 4
-196 9 -3 5 28 65 68 133 41 68 132 220 202 338 125 210 128 216 129 275 l1
60 -342 3 -343 2 0 -110z"/>
<path d="M12225 3848 c-8 -23 -135 -984 -135 -1020 0 -16 13 -18 129 -18 150
0 135 -14 146 143 l7 97 68 0 68 0 6 -87 c4 -49 10 -103 13 -120 l5 -33 134 0
c95 0 134 3 134 12 0 6 -13 117 -29 247 -17 130 -44 353 -61 496 -17 143 -34
268 -36 278 -5 15 -24 17 -225 17 -167 0 -221 -3 -224 -12z m225 -220 c0 -7 9
-85 20 -173 26 -214 29 -195 -30 -195 -41 0 -50 3 -50 18 0 26 30 314 36 340
5 23 24 31 24 10z"/>
<path d="M12900 3335 l0 -527 258 5 c278 4 311 10 366 58 54 47 67 93 79 290
11 187 -1 478 -23 551 -15 52 -56 97 -110 122 -41 19 -67 21 -307 24 l-263 4
0 -527z m416 280 c14 -22 16 -60 16 -275 0 -304 2 -300 -97 -300 l-65 0 0 300
0 300 65 0 c58 0 66 -3 81 -25z"/>
<path d="M3464 3726 c-3 -8 -7 -22 -8 -32 -2 -10 -18 -23 -37 -30 -31 -11 -36
-9 -61 14 -28 26 -58 25 -58 -3 0 -8 4 -15 8 -15 15 0 6 -40 -16 -69 -21 -29
-23 -29 -52 -15 -48 24 -64 -3 -26 -44 13 -16 15 -27 8 -53 -7 -28 -15 -36
-45 -43 -50 -13 -51 -42 -2 -52 20 -3 35 -12 35 -20 0 -8 3 -14 8 -14 4 0 7
-13 7 -29 1 -16 -3 -29 -9 -28 -11 2 -37 -44 -30 -55 3 -4 24 -5 48 -2 38 6
44 4 60 -21 15 -22 16 -32 7 -52 -15 -32 -14 -40 4 -47 8 -3 26 6 41 19 20 19
33 23 53 18 36 -8 41 -12 41 -29 0 -8 4 -13 9 -10 4 3 6 -6 3 -19 -3 -20 0
-25 17 -25 21 0 49 45 36 58 -3 3 9 12 26 19 29 12 35 11 65 -9 18 -12 30 -26
28 -30 -3 -4 2 -5 10 -2 16 6 23 44 8 44 -4 0 -7 13 -7 30 -1 16 1 27 4 25 2
-3 11 1 20 9 19 16 71 27 71 15 0 -5 7 -9 15 -9 14 0 17 6 14 28 -1 4 -5 6
-11 4 -5 -1 -7 2 -3 8 4 6 2 17 -5 24 -10 13 -8 55 4 75 3 5 22 12 42 15 45 9
43 34 -6 50 -28 9 -36 18 -41 45 -6 28 -3 39 17 59 30 33 17 52 -29 42 -26 -6
-37 -2 -58 17 -24 22 -26 28 -17 60 13 48 -7 62 -42 28 -21 -20 -31 -23 -55
-17 -24 7 -32 16 -39 45 -10 38 -41 52 -52 23z m93 -145 c23 -11 44 -16 48
-13 4 4 5 3 4 -3 -4 -12 36 -77 42 -70 11 10 18 -122 9 -160 -3 -11 -13 -26
-23 -33 -10 -8 -16 -21 -15 -30 2 -9 -1 -17 -7 -17 -5 -1 -24 -8 -41 -18 -18
-9 -50 -19 -72 -23 -138 -22 -252 130 -198 261 8 19 12 35 8 35 -15 0 55 54
93 71 51 24 99 24 152 0z"/>
<path d="M8008 2641 c-86 -12 -148 -47 -177 -100 -21 -37 -25 -63 -29 -151 -9
-208 23 -268 173 -329 155 -62 202 -89 215 -121 14 -35 9 -125 -9 -143 -7 -7
-34 -12 -61 -12 -66 0 -81 17 -83 89 l-2 56 -107 0 c-59 0 -109 -4 -113 -9
-13 -22 -17 -168 -5 -211 15 -57 72 -114 130 -131 58 -17 290 -18 348 -1 55
17 110 66 135 121 25 57 35 231 17 315 -17 82 -67 131 -175 170 -132 48 -206
87 -216 113 -10 27 -12 84 -3 107 8 22 63 37 99 28 36 -10 55 -43 55 -94 l0
-38 110 0 109 0 7 36 c4 19 4 69 2 110 -9 141 -72 188 -264 198 -55 2 -125 1
-156 -3z"/>
<path d="M8767 2639 c-154 -20 -199 -83 -219 -304 -13 -150 -4 -508 15 -588
17 -68 56 -131 94 -151 47 -23 129 -36 232 -36 188 0 264 31 307 124 34 75 48
250 40 511 -6 221 -18 298 -55 358 -49 80 -207 112 -414 86z m190 -239 c16
-32 18 -522 2 -568 -17 -48 -84 -58 -125 -17 l-25 25 3 278 c3 321 2 315 82
310 42 -3 53 -7 63 -28z"/>
<path d="M6640 2626 c0 -2 22 -66 49 -143 27 -76 81 -227 120 -337 l71 -199 0
-183 0 -184 140 0 140 0 1 193 0 192 113 325 c62 179 111 328 109 333 -2 4
-62 7 -133 7 l-128 0 -14 -47 c-8 -27 -30 -103 -49 -170 -19 -68 -39 -123 -44
-123 -6 0 -26 64 -46 143 -21 78 -42 154 -48 170 l-11 27 -135 0 c-74 0 -135
-2 -135 -4z"/>
<path d="M9357 2623 c-4 -3 -7 -240 -7 -525 l0 -518 275 0 275 0 0 115 0 115
-140 0 -140 0 0 410 0 410 -128 0 c-71 0 -132 -3 -135 -7z"/>
<path d="M9995 2618 c-3 -7 -4 -242 -3 -523 l3 -510 265 0 c251 0 267 1 312
22 61 28 102 90 117 177 14 80 14 550 0 636 -20 128 -75 181 -206 200 -104 15
-482 13 -488 -2z m411 -222 c18 -14 19 -29 19 -286 0 -315 5 -300 -102 -300
l-63 0 0 293 c0 162 3 297 7 300 12 13 119 7 139 -7z"/>
<path d="M10905 2618 c-2 -7 -18 -123 -35 -258 -18 -135 -47 -361 -66 -503
-19 -141 -34 -262 -34 -267 0 -7 48 -10 133 -8 l132 3 9 118 9 117 67 0 67 0
7 -77 c3 -43 9 -97 12 -120 l6 -43 134 0 c112 0 134 2 134 15 0 20 -52 452
-93 775 l-33 255 -222 3 c-173 2 -223 0 -227 -10z m229 -230 c7 -32 36 -303
36 -333 0 -23 -3 -25 -50 -25 -59 0 -56 -19 -30 195 11 88 20 166 20 173 0 21
19 13 24 -10z"/>
<path d="M11588 2624 c-5 -4 -8 -241 -8 -527 l0 -519 268 4 c285 4 304 7 355
56 75 70 92 180 84 536 -5 268 -15 320 -68 381 -51 58 -98 67 -379 72 -135 3
-248 2 -252 -3z m401 -223 c22 -14 30 -91 30 -291 0 -200 -8 -277 -30 -291 -8
-5 -42 -9 -76 -9 l-63 0 0 300 0 300 63 0 c34 0 68 -4 76 -9z"/>
<path d="M12397 2623 c-10 -9 -8 -756 2 -834 10 -78 30 -124 73 -167 46 -48
92 -57 278 -57 193 0 239 14 284 82 45 69 48 103 53 556 l5 428 -134 -3 -133
-3 -2 -400 c-3 -394 -3 -400 -24 -417 -28 -24 -81 -23 -110 1 l-24 19 -3 401
-3 401 -128 0 c-70 0 -131 -3 -134 -7z"/>
<path d="M13210 2106 l0 -526 135 0 135 0 0 205 0 205 28 0 c51 0 61 -24 88
-207 13 -92 27 -176 30 -185 5 -16 21 -18 150 -18 80 0 143 3 141 8 -3 4 -14
72 -26 152 -26 173 -52 268 -86 308 l-25 30 34 20 c62 36 70 60 74 206 5 158
-6 206 -57 257 -56 56 -86 62 -368 66 l-253 5 0 -526z m394 282 c19 -27 22
-138 5 -171 -17 -32 -28 -37 -81 -37 l-48 0 0 115 0 115 54 0 c45 0 58 -4 70
-22z"/>
<path d="M14116 2603 c-5 -26 -39 -287 -102 -773 -14 -107 -27 -207 -30 -222
l-6 -28 135 0 135 0 6 93 c12 155 7 147 81 147 l63 0 6 -42 c3 -24 9 -78 12
-120 l7 -78 139 0 c128 0 139 1 134 18 -3 9 -17 116 -31 237 -14 121 -41 343
-60 494 -19 150 -35 280 -35 287 0 12 -40 14 -224 14 l-224 0 -6 -27z m250
-379 c12 -98 19 -182 17 -186 -2 -5 -27 -8 -55 -8 -50 0 -50 0 -45 28 3 15 13
100 23 190 11 105 21 161 28 159 6 -2 20 -82 32 -183z"/>
</g>
</svg>
